# xmcd CD database file
#
# Track frame offsets:
#	150
#	30105
#	64027
#	86572
#	118292
#	146125
#	178615
#	194555
#	210520
#	232677
#	258122
#	282320
#	292255
#
# Disc length: 4151 seconds
#
# Revision: 0
# Processed by: cddbd v1.5.2PL0 Copyright (c) Steve Scherf et al.
# Submitted via: CDex 1.70beta2
#
DISCID=be10350d
DTITLE=Various Artist - 原聲傳奇
DYEAR=1900
DGENRE=New Age
TTITLE0=雪頓曬佛
TTITLE1=天唱
TTITLE2=江上船歌
TTITLE3=薩滿
TTITLE4=天祭
TTITLE5=星月梭
TTITLE6=葉娜
TTITLE7=司崗裏之一
TTITLE8=拉木鼓祭
TTITLE9=祭祖
TTITLE10=凉山新娘
TTITLE11=往红霞瀑布的路上
TTITLE12=森林裏的珞巴人
EXTD=
EXTT0=
EXTT1=
EXTT2=
EXTT3=
EXTT4=
EXTT5=
EXTT6=
EXTT7=
EXTT8=
EXTT9=
EXTT10=
EXTT11=
EXTT12=
PLAYORDER=
